<svg width="20" height="16" viewBox="0 0 20 16" fill="none" xmlns="http://www.w3.org/2000/svg">
  <path
    d="M4.5 5C3.11875 5 2 3.88125 2 2.5C2 1.11875 3.11875 0 4.5 0C5.88125 0 7 1.11875 7 2.5C7 3.88125 5.88125 5 4.5 5ZM16 5C14.6187 5 13.5 3.88125 13.5 2.5C13.5 1.11875 14.6187 0 16 0C17.3813 0 18.5 1.11875 18.5 2.5C18.5 3.88125 17.3813 5 16 5ZM0 9.33438C0 7.49375 1.49375 6 3.33437 6H4.66875C5.16562 6 5.6375 6.10937 6.0625 6.30312C6.02188 6.52812 6.00313 6.7625 6.00313 7C6.00313 8.19375 6.52812 9.26562 7.35625 10H0.665625C0.3 10 0 9.7 0 9.33438ZM12.6656 10H12.6438C13.475 9.26562 13.9969 8.19375 13.9969 7C13.9969 6.7625 13.975 6.53125 13.9375 6.30312C14.3625 6.10625 14.8344 6 15.3313 6H16.6656C18.5062 6 20 7.49375 20 9.33438C20 9.70313 19.7 10 19.3344 10H12.6656ZM13 7C13 8.65625 11.6562 10 10 10C8.34375 10 7 8.65625 7 7C7 5.34375 8.34375 4 10 4C11.6562 4 13 5.34375 13 7ZM4 15.1656C4 12.8656 5.86562 11 8.16562 11H11.8344C14.1344 11 16 12.8656 16 15.1656C16 15.625 15.6281 16 15.1656 16H4.83437C4.375 16 4 15.6281 4 15.1656V15.1656Z"
    fill="#151B28" />
</svg>